# File created by Blade
# Date/Time:  Mon Sep 22 15:39:46 2014
# Frame Rate: 120.000 fps
#------------------------------------------------------
:FULLY-SPECIFIED
:DEGREES
2926
root 1.100926 37.014876 2.621040 0.034187 -13.715240 0.541634
RightUpLeg 7.465572 1.969266 -1.012846
RightLeg -5.827009 -0.000000 0.000000
RightFoot -11.214507 -11.938492 15.084981
RightToeBase 15.695107 -0.000000 -0.000000
LeftUpLeg 9.023223 10.328193 4.392569
LeftLeg -2.867457 -0.000000 0.000000
LeftFoot -11.201664 15.525127 -19.771952
LeftToeBase 8.156499 -0.000000 -0.000000
Spine 4.571627 -11.636883 -9.115202
RightShoulder -1.848408 -22.450259 -24.000549
RightArm -170.122371 175.264410 -156.415519
RightForeArm 95.847658 -0.000000 106.943030
RightHand 3.032244 -0.000000 -17.274946
RightHandThumb1 -24.326973 -0.000000 -32.862282
LeftShoulder -19.547822 36.288232 -10.119102
LeftArm 34.587305 -0.346221 -62.944019
LeftForeArm 22.519379 -0.000000 30.156417
LeftHand -15.604271 -0.000000 -8.933096
LeftHandThumb1 -26.253704 0.000000 33.147579
Head -0.150517 -46.106844 5.502208
2927
root 1.110704 37.014593 2.625540 0.118722 -13.699285 0.562563
RightUpLeg 7.381646 1.963673 -1.049529
RightLeg -5.825309 -0.000000 0.000000
RightFoot -11.220517 -11.972328 15.037033
RightToeBase 15.707639 -0.000000 -0.000000
LeftUpLeg 8.938781 10.306832 4.339397
LeftLeg -2.877701 -0.000000 0.000000
LeftFoot -11.197328 15.526514 -19.757911
LeftToeBase 8.131928 -0.000000 -0.000000
Spine 4.428277 -11.824223 -9.005179
RightShoulder -2.031601 -21.811648 -23.799199
RightArm -170.860433 171.434487 -155.041408
RightForeArm 95.642606 -0.000000 107.335251
RightHand 3.603772 -0.000000 -17.291412
RightHandThumb1 -24.326973 -0.000000 -32.862282
LeftShoulder -19.499192 36.311224 -10.038150
LeftArm 34.470542 -0.445755 -63.193861
LeftForeArm 22.553992 -0.000000 30.264180
LeftHand -15.618409 0.000000 -8.921221
LeftHandThumb1 -26.253704 0.000000 33.147579
Head -0.026484 -46.059060 5.352803
2928
root 1.123853 37.013757 2.634882 0.183306 -13.657341 0.610628
RightUpLeg 7.298976 1.853588 -1.123177
RightLeg -5.781407 -0.000000 0.000000
RightFoot -11.274326 -11.912296 15.015904
RightToeBase 15.705016 -0.000000 -0.000000
LeftUpLeg 8.867613 10.383673 4.271591
LeftLeg -2.880959 -0.000000 0.000000
LeftFoot -11.162701 15.415598 -19.726238
LeftToeBase 8.185771 -0.000000 -0.000000
Spine 4.306309 -12.080314 -8.915328
RightShoulder -2.139989 -20.927715 -23.682644
RightArm -171.598782 167.501336 -153.557655
RightForeArm 95.585639 -0.000000 107.690523
RightHand 4.234651 -0.000000 -17.522986
RightHandThumb1 -24.326973 -0.000000 -32.862282
LeftShoulder -19.602477 36.340971 -10.056543
LeftArm 34.457896 -0.439441 -63.334078
LeftForeArm 22.578326 -0.000000 30.317584
LeftHand -15.725477 -0.000000 -8.747907
LeftHandThumb1 -26.253704 0.000000 33.147579
Head 0.074951 -45.936585 5.183877
2929
root 1.136721 37.013918 2.641672 0.275255 -13.613524 0.643745
RightUpLeg 7.200494 1.824879 -1.177404
RightLeg -5.757745 -0.000000 0.000000
RightFoot -11.319691 -11.928737 15.041643
RightToeBase 15.736273 -0.000000 -0.000000
LeftUpLeg 8.776152 10.372165 4.201093
LeftLeg -2.906548 -0.000000 0.000000
LeftFoot -11.131298 15.410506 -19.688851
LeftToeBase 8.156803 -0.000000 -0.000000
Spine 4.146128 -12.286502 -8.794510
RightShoulder -2.321762 -20.043428 -23.544110
RightArm -172.189585 163.398831 -152.109104
RightForeArm 95.423177 0.000000 107.983980
RightHand 4.904020 0.000000 -17.649797
RightHandThumb1 -24.326973 -0.000000 -32.862282
LeftShoulder -19.576134 36.361333 -9.976393
LeftArm 34.367996 -0.466591 -63.569255
LeftForeArm 22.647006 -0.000000 30.376914
LeftHand -15.796472 -0.000000 -8.809173
LeftHandThumb1 -26.253704 0.000000 33.147579
Head 0.226979 -45.896658 4.981742
2930
root 1.144144 37.013240 2.648408 0.357887 -13.553115 0.644503
RightUpLeg 7.171418 1.897019 -1.188018
RightLeg -5.834309 -0.000000 0.000000
RightFoot -11.318418 -12.031449 15.109949
RightToeBase 15.636786 -0.000000 -0.000000
LeftUpLeg 8.700609 10.218170 4.159841
LeftLeg -2.930846 -0.000000 0.000000
LeftFoot -11.150558 15.496610 -19.677009
LeftToeBase 8.135551 -0.000000 -0.000000
Spine 4.004586 -12.483570 -8.643851
RightShoulder -2.471592 -19.023846 -23.437482
RightArm -172.776740 159.161591 -150.680854
RightForeArm 95.429511 -0.000000 108.257557
RightHand 5.455008 -0.000000 -17.770740
RightHandThumb1 -24.326973 -0.000000 -32.862282
LeftShoulder -19.526911 36.390444 -9.864344
LeftArm 34.301548 -0.473257 -63.811488
LeftForeArm 22.422237 -0.000000 30.403885
LeftHand -15.577124 0.000000 -8.776488
LeftHandThumb1 -26.253704 0.000000 33.147579
Head 0.396387 -45.821440 4.788131
2931
root 1.156699 37.013273 2.654689 0.453410 -13.480323 0.679117
RightUpLeg 7.055406 1.817002 -1.243923
RightLeg -5.775338 -0.000000 0.000000
RightFoot -11.365779 -12.025435 15.075493
RightToeBase 15.710393 -0.000000 -0.000000
LeftUpLeg 8.597889 10.179080 4.087104
LeftLeg -2.952962 -0.000000 0.000000
LeftFoot -11.129603 15.480639 -19.663060
LeftToeBase 8.140825 -0.000000 -0.000000
Spine 3.835602 -12.700221 -8.505639
RightShoulder -2.642337 -17.940140 -23.402362
RightArm -173.164352 154.832355 -149.138829
RightForeArm 95.315251 -0.000000 108.473435
RightHand 6.176718 0.000000 -17.750108
RightHandThumb1 -24.326973 -0.000000 -32.862282
LeftShoulder -19.501976 36.383653 -9.802466
LeftArm 34.212862 -0.502096 -64.016146
LeftForeArm 22.423330 -0.000000 30.493037
LeftHand -15.708797 -0.000000 -8.837991
LeftHandThumb1 -26.253704 0.000000 33.147579
Head 0.571158 -45.797650 4.531249
2932
root 1.167393 37.013501 2.660850 0.554021 -13.387707 0.694116
RightUpLeg 6.988489 1.845400 -1.273265
RightLeg -5.808420 -0.000000 0.000000
RightFoot -11.396457 -12.099553 15.167638
RightToeBase 15.742621 -0.000000 -0.000000
LeftUpLeg 8.491237 10.140987 4.037919
LeftLeg -2.973057 -0.000000 0.000000
LeftFoot -11.123013 15.458219 -19.677412
LeftToeBase 8.151074 -0.000000 -0.000000
Spine 3.676855 -12.943484 -8.348711
RightShoulder -2.735960 -16.660685 -23.422716
RightArm -173.621196 150.468149 -147.614974
RightForeArm 95.108834 -0.000000 108.665834
RightHand 6.893092 -0.000000 -17.714278
RightHandThumb1 -24.326973 -0.000000 -32.862282
LeftShoulder -19.525749 36.368896 -9.760352
LeftArm 34.145411 -0.501279 -64.192471
LeftForeArm 22.506064 -0.000000 30.548791
LeftHand -15.827352 -0.000000 -8.775926
LeftHandThumb1 -26.253704 0.000000 33.147579
Head 0.726507 -45.683768 4.326171
2933
root 1.180023 37.013953 2.667437 0.660861 -13.284196 0.722123
RightUpLeg 6.887679 1.806302 -1.321171
RightLeg -5.792363 -0.000000 0.000000
RightFoot -11.443154 -12.151087 15.196771
RightToeBase 15.757400 -0.000000 -0.000000
LeftUpLeg 8.384621 10.076301 3.971472
LeftLeg -3.015406 -0.000000 0.000000
LeftFoot -11.083750 15.444718 -19.647888
LeftToeBase 8.168456 -0.000000 -0.000000
Spine 3.497662 -13.128558 -8.194099
RightShoulder -2.865725 -15.408122 -23.522705
RightArm -173.905664 145.936852 -145.955547
RightForeArm 95.268164 -0.000000 108.793069
RightHand 7.447113 -0.000000 -18.392709
RightHandThumb1 -24.326973 -0.000000 -32.862282
LeftShoulder -19.519008 36.423330 -9.698720
LeftArm 34.175133 -0.498387 -64.376817
LeftForeArm 22.464757 -0.000000 30.563162
LeftHand -15.693110 -0.000000 -8.847007
LeftHandThumb1 -26.253704 0.000000 33.147579
Head 0.905790 -45.664121 4.116370
2934
root 1.191895 37.014909 2.674241 0.750976 -13.163742 0.753606
RightUpLeg 6.812004 1.782096 -1.359151
RightLeg -5.788760 -0.000000 0.000000
RightFoot -11.479858 -12.268234 15.180213
RightToeBase 15.745534 -0.000000 -0.000000
LeftUpLeg 8.296944 9.953440 3.900360
LeftLeg -3.069231 -0.000000 0.000000
LeftFoot -11.058934 15.465395 -19.649543
LeftToeBase 8.191965 -0.000000 -0.000000
Spine 3.348455 -13.274011 -8.036452
RightShoulder -3.055320 -14.019865 -23.730975
RightArm -174.130851 141.478042 -144.179752
RightForeArm 95.320559 -0.000000 108.878242
RightHand 8.199239 -0.000000 -18.052671
RightHandThumb1 -24.326973 -0.000000 -32.862282
LeftShoulder -19.446956 36.396243 -9.601957
LeftArm 34.143892 -0.453719 -64.496842
LeftForeArm 22.238591 -0.000000 30.565952
LeftHand -15.434644 -0.000000 -8.834040
LeftHandThumb1 -26.253704 0.000000 33.147579
Head 1.004693 -45.650241 3.941995
2935
root 1.205896 37.015796 2.682613 0.847452 -13.030772 0.793407
RightUpLeg 6.727552 1.735981 -1.420387
RightLeg -5.774527 -0.000000 0.000000
RightFoot -11.523764 -12.320426 15.209531
RightToeBase 15.700359 -0.000000 -0.000000
LeftUpLeg 8.196196 9.961624 3.838847
LeftLeg -3.108734 -0.000000 0.000000
LeftFoot -10.974903 15.328846 -19.621797
LeftToeBase 8.198283 -0.000000 -0.000000
Spine 3.201786 -13.475291 -7.884903
RightShoulder -3.103337 -13.051339 -23.971095
RightArm -174.004558 136.437426 -142.154522
RightForeArm 95.842837 0.000000 108.953272
RightHand 9.173965 -0.000000 -17.653673
RightHandThumb1 -24.326973 -0.000000 -32.862282
LeftShoulder -19.530333 36.306662 -9.626461
LeftArm 34.128335 -0.470059 -64.638884
LeftForeArm 22.284686 0.000000 30.632140
LeftHand -15.607613 -0.000000 -8.909260
LeftHandThumb1 -26.253704 0.000000 33.147579
Head 1.067944 -45.586255 3.834873
2936
root 1.220809 37.017404 2.690034 0.943085 -12.859978 0.846200
RightUpLeg 6.648520 1.670602 -1.490423
RightLeg -5.772413 -0.000000 0.000000
RightFoot -11.570993 -12.413082 15.230974
RightToeBase 15.622002 -0.000000 -0.000000
LeftUpLeg 8.080944 9.931387 3.759132
LeftLeg -3.143547 -0.000000 0.000000
LeftFoot -10.877286 15.215833 -19.578032
LeftToeBase 8.172034 -0.000000 -0.000000
Spine 3.082347 -13.632496 -7.750379
RightShoulder -3.197889 -11.886475 -24.290697
RightArm -173.872708 131.446532 -140.024101
RightForeArm 96.223431 -0.000000 109.031955
RightHand 9.817804 -0.000000 -17.455657
RightHandThumb1 -24.326973 -0.000000 -32.862282
LeftShoulder -19.524076 36.170284 -9.582043
LeftArm 34.061535 -0.421958 -64.726816
LeftForeArm 22.388874 -0.000000 30.725583
LeftHand -15.683555 -0.000000 -8.826237
LeftHandThumb1 -26.253704 0.000000 33.147579
Head 1.019349 -45.606965 3.814711
2937
root 1.235382 37.019806 2.697243 1.044084 -12.674076 0.890278
RightUpLeg 6.559054 1.563957 -1.550698
RightLeg -5.743685 -0.000000 0.000000
RightFoot -11.629350 -12.475727 15.278997
RightToeBase 15.695025 -0.000000 -0.000000
LeftUpLeg 7.957319 9.811761 3.677348
LeftLeg -3.175011 -0.000000 0.000000
LeftFoot -10.816118 15.178588 -19.555121
LeftToeBase 8.163038 -0.000000 -0.000000
Spine 2.957344 -13.708686 -7.597190
RightShoulder -3.339353 -10.841368 -24.655145
RightArm -173.393123 126.314075 -137.620977
RightForeArm 96.848079 0.000000 109.100147
RightHand 10.981439 -0.000000 -17.222987
RightHandThumb1 -24.326973 -0.000000 -32.862282
LeftShoulder -19.453567 36.046069 -9.551348
LeftArm 34.025081 -0.462502 -64.800251
LeftForeArm 22.268175 0.000000 30.804919
LeftHand -15.588651 0.000000 -9.245490
LeftHandThumb1 -26.253704 0.000000 33.147579
Head 0.982498 -45.685929 3.803385
2938
root 1.247448 37.022337 2.703461 1.160929 -12.480018 0.935159
RightUpLeg 6.473691 1.502233 -1.604774
RightLeg -5.761793 -0.000000 0.000000
RightFoot -11.665359 -12.610688 15.312803
RightToeBase 15.601612 -0.000000 -0.000000
LeftUpLeg 7.805429 9.686620 3.597922
LeftLeg -3.183205 -0.000000 0.000000
LeftFoot -10.761578 15.124556 -19.550995
LeftToeBase 8.150792 -0.000000 -0.000000
Spine 2.823208 -13.774361 -7.448549
RightShoulder -3.483050 -9.711775 -25.063017
RightArm -172.568750 121.188521 -134.902990
RightForeArm 97.667540 -0.000000 109.099766
RightHand 12.451533 -0.000000 -16.402051
RightHandThumb1 -24.326973 -0.000000 -32.862282
LeftShoulder -19.424948 35.917275 -9.539405
LeftArm 34.005163 -0.496268 -64.861887
LeftForeArm 22.281078 -0.000000 30.921934
LeftHand -15.540266 -0.000000 -9.315669
LeftHandThumb1 -26.253704 0.000000 33.147579
Head 0.868034 -45.845542 3.835443
